<svg width="18" height="13" viewBox="0 0 18 13" fill="none" xmlns="http://www.w3.org/2000/svg">
<path d="M9.00012 12.5519C6.25833 12.5519 3.66374 11.3903 1.69274 9.28107C1.45038 9.022 1.46452 8.61507 1.72359 8.37271C1.98331 8.13036 2.3896 8.1445 2.6326 8.40357C4.35739 10.2499 6.61833 11.2662 9.00012 11.2662C12.0621 11.2662 14.8816 9.59158 16.6116 6.76621C14.8823 3.94084 12.0621 2.26619 9.00012 2.26619C5.82568 2.26619 2.91096 4.06684 1.20223 7.08314C1.02738 7.39235 0.633947 7.50164 0.326017 7.3255C0.0168013 7.15064 -0.0911991 6.75849 0.0836588 6.44928C2.02317 3.02476 5.35704 0.980469 9.00012 0.980469C12.6439 0.980469 15.9771 3.02476 17.9166 6.44928C18.0278 6.64599 18.0278 6.88642 17.9166 7.08249C15.9771 10.507 12.6439 12.5519 9.00012 12.5519Z" fill="black"/>
<path d="M8.99653 9.97987C7.22416 9.97987 5.78223 8.53793 5.78223 6.76557C5.78223 4.9932 7.22416 3.55127 8.99653 3.55127C10.7689 3.55127 12.2108 4.9932 12.2108 6.76557C12.2108 8.53793 10.7689 9.97987 8.99653 9.97987ZM8.99653 4.83699C7.93324 4.83699 7.06795 5.70228 7.06795 6.76557C7.06795 7.82886 7.93324 8.69415 8.99653 8.69415C10.0598 8.69415 10.9251 7.82886 10.9251 6.76557C10.9251 5.70228 10.0598 4.83699 8.99653 4.83699Z" fill="black"/>
</svg>
