<svg width="18" height="23" viewBox="0 0 18 23" fill="none" xmlns="http://www.w3.org/2000/svg">
<path fill-rule="evenodd" clip-rule="evenodd" d="M8.8766 0.341309C6.06164 0.341309 3.77967 2.62329 3.77967 5.43825C3.77967 8.25321 6.06164 10.5352 8.8766 10.5352C11.6916 10.5352 13.9735 8.25321 13.9735 5.43825C13.9735 2.62329 11.6916 0.341309 8.8766 0.341309ZM5.38922 5.43825C5.38922 3.51222 6.95058 1.95087 8.8766 1.95087C10.8026 1.95087 12.364 3.51222 12.364 5.43825C12.364 7.36427 10.8026 8.92562 8.8766 8.92562C6.95058 8.92562 5.38922 7.36427 5.38922 5.43825Z" fill="#8E00FE"/>
<path fill-rule="evenodd" clip-rule="evenodd" d="M5.65748 12.1447C2.84252 12.1447 0.560547 14.4267 0.560547 17.2417C0.560547 20.0566 2.84252 22.3386 5.65748 22.3386H12.0957C14.9107 22.3386 17.1927 20.0566 17.1927 17.2417C17.1927 14.4267 14.9107 12.1447 12.0957 12.1447H5.65748ZM2.17011 17.2417C2.17011 15.3157 3.73146 13.7543 5.65748 13.7543H12.0957C14.0217 13.7543 15.5831 15.3157 15.5831 17.2417C15.5831 19.1677 14.0217 20.7291 12.0957 20.7291H5.65748C3.73146 20.7291 2.17011 19.1677 2.17011 17.2417Z" fill="#8E00FE"/>
</svg>
