<svg width="30" height="30" viewBox="0 0 30 30" fill="none" xmlns="http://www.w3.org/2000/svg">
<circle cx="15" cy="15" r="15" fill="#8E00FE"/>
<path d="M8.4635 15.0957C8.46142 15.412 8.58553 15.7159 8.80734 15.9402C8.80739 15.9402 8.80744 15.9403 8.80749 15.9403L17.0965 24.3247C17.5599 24.794 18.3152 24.7966 18.7829 24.3349L18.7834 24.3343C19.2504 23.8721 19.2559 23.117 18.7927 22.6488C18.7926 22.6487 18.7926 22.6486 18.7925 22.6486L11.3414 15.1123L18.7831 7.75564L18.7834 7.75538C19.2503 7.29329 19.2559 6.53841 18.793 6.07017C18.3301 5.60122 17.5746 5.5978 17.107 6.06026C17.107 6.06029 17.107 6.06032 17.1069 6.06035C17.1069 6.06041 17.1068 6.06047 17.1067 6.06054L8.81755 14.2544L8.81735 14.2546C8.59326 14.4763 8.465 14.7779 8.4635 15.0957ZM8.4635 15.0957C8.4635 15.0954 8.46351 15.095 8.46351 15.0946L9.06349 15.0991L8.4635 15.0969C8.4635 15.0965 8.4635 15.0961 8.4635 15.0957Z" fill="#FBFBFB" stroke="white" stroke-width="1.2"/>
</svg>
