<svg width="31" height="31" viewBox="0 0 31 31" fill="none" xmlns="http://www.w3.org/2000/svg">
<circle cx="15.5" cy="15.5" r="15" stroke="black"/>
<path d="M15.5004 4.6499C9.50577 4.6499 4.65039 9.50528 4.65039 15.4999C4.65039 21.4945 9.50577 26.3499 15.5004 26.3499C21.495 26.3499 26.3504 21.4945 26.3504 15.4999C26.3504 9.50528 21.495 4.6499 15.5004 4.6499ZM6.82039 15.4999C6.82039 10.7042 10.7047 6.8199 15.5004 6.8199C17.5076 6.8199 19.3467 7.50888 20.8169 8.64813L8.64862 20.8164C7.50937 19.3462 6.82039 17.5072 6.82039 15.4999ZM15.5004 24.1799C13.4931 24.1799 11.6541 23.4909 10.1839 22.3517L22.3522 10.1834C23.4914 11.6536 24.1804 13.4927 24.1804 15.4999C24.1804 20.2956 20.2961 24.1799 15.5004 24.1799Z" fill="black"/>
</svg>
