<svg width="18" height="18" viewBox="0 0 18 18" fill="none" xmlns="http://www.w3.org/2000/svg">
<path d="M13.2512 0.458226C13.4104 0.473351 13.479 0.666537 13.366 0.779552L5.46638 8.67921C5.37692 8.76865 5.31291 8.8803 5.28093 9.00269L4.33147 12.6377C4.26758 12.8823 4.33816 13.1424 4.51691 13.3211C4.69568 13.4999 4.95581 13.5706 5.20041 13.5067L8.83538 12.5572C8.95777 12.5252 9.06942 12.4612 9.15896 12.3717L17.1704 4.36022C17.2828 4.24781 17.475 4.31506 17.4916 4.47316C17.8254 7.65303 17.8065 10.8607 17.4349 14.0374C17.2234 15.8462 15.7696 17.2664 13.9671 17.4678C10.6933 17.8337 7.30874 17.8337 4.03484 17.4678C2.23239 17.2664 0.77858 15.8462 0.567021 14.0374C0.175576 10.6905 0.175576 7.30951 0.567021 3.96265C0.77858 2.15388 2.23239 0.733693 4.03484 0.532236C7.07064 0.192946 10.2017 0.168269 13.2512 0.458226Z" fill="#8E00FE"/>
<path d="M15.3824 0.332886C15.4827 0.232788 15.645 0.232788 15.7452 0.332886L17.1982 1.78583C17.2985 1.88612 17.2985 2.04873 17.1982 2.14902L8.67851 10.6687C8.64635 10.7008 8.60567 10.7239 8.56181 10.7355L6.59511 11.2493C6.40543 11.2987 6.23269 11.1255 6.28193 10.9359L6.79557 8.96944C6.8071 8.92527 6.8302 8.885 6.86245 8.85274L15.3824 0.332886Z" fill="#8E00FE"/>
</svg>
