<svg width="24" height="25" viewBox="0 0 24 25" fill="none" xmlns="http://www.w3.org/2000/svg">
<path d="M5.04636 3.19868C3.21801 3.76457 1.86139 5.56675 1.86139 7.75962C1.86139 8.88104 2.22234 10.17 2.8963 11.5789C3.56566 12.9782 4.50738 14.4204 5.58038 15.828C7.49675 18.3419 9.76603 20.6609 11.4786 22.3332C11.7263 22.0913 11.9856 21.836 12.2538 21.5684C12.4837 21.3391 12.8211 21.3343 13.0543 21.559L13.5424 22.0294C13.8388 22.315 13.845 22.8442 13.5531 23.1361C13.0149 23.6745 12.5134 24.1627 12.0703 24.5902C11.7266 24.9217 11.2306 24.9217 10.8869 24.5902C9.12476 22.8904 6.44027 20.2296 4.19194 17.2802C3.06747 15.8051 2.03145 14.2314 1.27245 12.6447C0.518045 11.0676 0 9.40065 0 7.75962C0 4.42759 2.05595 1.86905 4.57085 1.09068C6.83884 0.388727 9.46773 1.11265 11.4786 3.78911C13.4895 1.11265 16.1184 0.388756 18.3864 1.09074C20.9013 1.86914 22.9572 4.4277 22.9572 7.75972C22.9572 8.35526 22.889 8.95421 22.766 9.55103C22.6701 10.0165 22.2042 10.1967 21.8665 9.92701L21.289 9.46603C21.0719 9.29276 20.9754 8.9789 21.0221 8.67614C21.071 8.35971 21.0958 8.05395 21.0958 7.75972C21.0958 5.56685 19.7392 3.76464 17.9108 3.19873C16.1402 2.65069 13.9032 3.28451 12.253 6.18386L11.9949 6.63739C11.7493 7.0689 11.2079 7.0689 10.9623 6.63739L10.7042 6.18386C9.05404 3.2845 6.81702 2.65066 5.04636 3.19868Z" fill="#D7D7D9"/>
<path fill-rule="evenodd" clip-rule="evenodd" d="M12.7916 10.0244C13.0945 9.66958 13.5855 9.66958 13.8884 10.0244L22.5749 20.1993C22.8778 20.5541 22.8778 21.1293 22.5749 21.4841C22.272 21.8389 21.781 21.8389 21.4781 21.4841L20.5084 20.3483C19.614 20.7996 18.6441 21.0233 17.6833 21.0233C15.17 21.0233 12.5946 19.4927 11.4707 16.3616C11.3318 15.9744 11.3318 15.534 11.4707 15.1468C11.9299 13.8676 12.6313 12.8555 13.4717 12.1058L12.7916 11.3091C12.4887 10.9544 12.4887 10.3791 12.7916 10.0244ZM14.5823 13.4067L19.3007 18.9336C18.7806 19.1149 18.2343 19.2063 17.6832 19.2063C15.7091 19.2063 13.7953 18.0333 12.9363 15.7542C13.3114 14.7589 13.8877 13.9746 14.5823 13.4067Z" fill="#D7D7D9"/>
<path d="M21.7975 16.9864C22.0452 16.6201 22.2587 16.2092 22.4302 15.7542C21.5712 13.4751 19.6574 12.302 17.6832 12.302C17.6318 12.302 17.5803 12.3028 17.529 12.3044C17.4413 12.3071 17.356 12.2691 17.294 12.1965L16.4187 11.1712C16.2468 10.9699 16.3312 10.6289 16.5714 10.5853C16.9401 10.5184 17.3124 10.4851 17.6833 10.4851C20.1965 10.4851 22.7719 12.0157 23.8958 15.1468C24.0347 15.534 24.0347 15.9744 23.8958 16.3616C23.6398 17.0747 23.3086 17.7048 22.9199 18.2527C22.8073 18.4114 22.6034 18.4157 22.4788 18.2697L21.8158 17.4932C21.6992 17.3566 21.6951 17.1378 21.7975 16.9864Z" fill="#D7D7D9"/>
</svg>
