<svg width="29" height="29" viewBox="0 0 29 29" fill="none" xmlns="http://www.w3.org/2000/svg">
<path d="M13.5317 18.3749C13.5317 17.8399 13.9654 17.4062 14.5005 17.4062L22.2505 17.4062C22.7855 17.4062 23.2192 17.8399 23.2192 18.3749C23.2192 18.9099 22.7855 19.3437 22.2505 19.3437L14.5005 19.3437C13.9654 19.3437 13.5317 18.9099 13.5317 18.3749Z" fill="black"/>
<path fill-rule="evenodd" clip-rule="evenodd" d="M24.299 10.3162C23.8664 8.04422 22.7713 5.87263 21.0156 4.11469C16.3545 -0.552228 8.79697 -0.552228 4.13592 4.11469C2.71405 5.53836 1.45833 7.64575 0.909158 9.9854C0.356659 12.3392 0.50984 14.9832 2.00212 17.3875C2.07852 17.5106 2.12578 17.5869 2.15917 17.644C2.17456 17.6703 2.18266 17.6853 2.18608 17.6918C2.18919 17.7 2.19111 17.7057 2.19223 17.7093C2.19221 17.7135 2.19204 17.7208 2.19132 17.7318C2.1904 17.7369 2.18826 17.748 2.18393 17.7672C2.17289 17.8161 2.15608 17.8815 2.12618 17.997L2.1175 18.0305C1.94611 18.6926 1.80524 19.2367 1.72244 19.6764C1.63909 20.1189 1.59086 20.5656 1.67952 21.0018C1.93233 22.2456 2.90343 23.2186 4.14726 23.4721C4.58359 23.561 5.0303 23.5126 5.47242 23.4291C5.91165 23.3462 6.45523 23.2051 7.11638 23.0335L7.14991 23.0248C7.26526 22.9949 7.33054 22.9781 7.37934 22.967C7.39834 22.9627 7.40942 22.9606 7.41454 22.9596C7.42466 22.959 7.43159 22.9588 7.43591 22.9587C7.43947 22.9599 7.44485 22.9617 7.45238 22.9645C7.4589 22.968 7.47405 22.9761 7.50058 22.9916C7.55807 23.0252 7.63497 23.0726 7.75873 23.1492C8.55947 23.6447 9.39286 23.991 10.2371 24.2102C10.5503 24.6465 10.9025 25.0628 11.2935 25.4543C12.4455 26.6078 14.2051 27.6547 16.1651 28.1241C18.1386 28.5968 20.3872 28.4978 22.4218 27.2388C22.5205 27.1778 22.5808 27.1406 22.6252 27.1145C22.6607 27.1229 22.7095 27.1355 22.7903 27.1565L22.8229 27.165C23.3631 27.3052 23.8155 27.4226 24.183 27.492C24.5533 27.5619 24.9477 27.6068 25.3402 27.5269C26.4318 27.3044 27.284 26.4505 27.5058 25.3591C27.5855 24.9668 27.5407 24.5725 27.4709 24.2018C27.4017 23.834 27.2844 23.3812 27.1444 22.8402L27.1359 22.8076C27.1148 22.7258 27.1022 22.6768 27.0937 22.6411C27.1197 22.597 27.1567 22.5372 27.2179 22.4387C28.4755 20.4124 28.6022 18.1865 28.1391 16.2136C27.6794 14.2549 26.629 12.4914 25.4363 11.2972C25.0769 10.9373 24.6966 10.6103 24.299 10.3162ZM19.6447 5.48385C15.7405 1.57472 9.41102 1.57472 5.5068 5.48385C4.33142 6.66072 3.25967 8.45017 2.79539 10.4281C2.33444 12.392 2.48182 14.4864 3.64831 16.3658C3.65935 16.3836 3.67054 16.4015 3.68182 16.4196C3.79303 16.5981 3.9128 16.7904 3.98225 16.965C4.10544 17.2747 4.14808 17.555 4.12262 17.8873C4.10831 18.074 4.05812 18.2666 4.01403 18.4357C4.00991 18.4515 4.00583 18.4671 4.00185 18.4825C3.81965 19.1864 3.69574 19.6671 3.62646 20.035C3.55634 20.4073 3.56574 20.5546 3.5782 20.6159C3.6764 21.099 4.05321 21.4756 4.53411 21.5736C4.59463 21.5859 4.7412 21.5955 5.11296 21.5253C5.48021 21.4559 5.9602 21.3319 6.66321 21.1495C6.6786 21.1455 6.69423 21.1414 6.71006 21.1372C6.87878 21.0931 7.07112 21.0429 7.25738 21.0285C7.58939 21.0028 7.86788 21.0449 8.1774 21.1676C8.35159 21.2367 8.5445 21.3565 8.72388 21.4679C8.74214 21.4793 8.76026 21.4905 8.7782 21.5016C8.81351 21.5235 8.84889 21.5449 8.88434 21.566C7.71637 18.0787 8.51871 14.0754 11.2935 11.2972C14.1692 8.41784 18.3596 7.6591 21.929 9.01958C21.4429 7.73067 20.6817 6.52214 19.6447 5.48385ZM22.8698 11.6779C19.7348 9.55777 15.4392 9.88802 12.6644 12.6663C9.9209 15.4133 9.56665 19.6498 11.6056 22.78C11.906 23.2412 12.2588 23.6791 12.6644 24.0852C13.5639 24.9859 15.0054 25.854 16.6164 26.2399C18.2138 26.6225 19.906 26.5171 21.4024 25.5912C21.4172 25.582 21.4324 25.5726 21.448 25.5629C21.5921 25.4733 21.7652 25.3656 21.9241 25.3027C22.2032 25.192 22.4586 25.1533 22.7579 25.1765C22.9277 25.1896 23.1016 25.2352 23.2375 25.2708C23.2511 25.2744 23.2642 25.2778 23.277 25.2811C23.8583 25.432 24.247 25.5323 24.5425 25.5881C24.8424 25.6447 24.9366 25.6318 24.9533 25.6284C25.282 25.5614 25.5399 25.3039 25.6071 24.9732C25.6107 24.9558 25.6235 24.8609 25.5669 24.5604C25.5112 24.2645 25.4109 23.8751 25.2603 23.2931C25.257 23.2804 25.2535 23.2672 25.25 23.2536C25.2144 23.1174 25.1689 22.9433 25.1559 22.7732C25.1329 22.4735 25.172 22.2166 25.2831 21.9374C25.3464 21.7782 25.454 21.6056 25.5435 21.4623C25.5531 21.4468 25.5625 21.4317 25.5717 21.4169C26.5036 19.9155 26.6244 18.2392 26.2529 16.6563C25.878 15.0593 25.0117 13.6137 24.0654 12.6663C23.6916 12.292 23.2909 11.9626 22.8698 11.6779Z" fill="black"/>
</svg>
