<svg width="20" height="20" viewBox="0 0 20 20" fill="none" xmlns="http://www.w3.org/2000/svg">
<path d="M17.1333 4.63411C17.2501 4.51822 17.3429 4.38041 17.4063 4.22858C17.4698 4.07675 17.5026 3.91389 17.5029 3.74935C17.5032 3.58481 17.4711 3.42182 17.4083 3.26974C17.3454 3.11766 17.2532 2.97948 17.1369 2.86313C17.0205 2.74678 16.8823 2.65455 16.7302 2.59173C16.5782 2.52891 16.4152 2.49675 16.2506 2.49707C16.0861 2.4974 15.9232 2.53022 15.7714 2.59364C15.6196 2.65706 15.4818 2.74984 15.3659 2.86665L14.4698 3.76273C13.1244 2.93869 11.5777 2.50189 10 2.50044C5.38358 2.50044 2.56637 5.77173 0.210562 9.30669C0.073283 9.51185 0 9.75315 0 10C0 10.2469 0.073283 10.4882 0.210562 10.6933C1.15256 12.1584 2.25756 13.5119 3.50442 14.7281L2.86667 15.3659C2.74985 15.4817 2.65708 15.6196 2.59365 15.7714C2.53023 15.9232 2.49742 16.0861 2.49709 16.2506C2.49676 16.4152 2.52893 16.5781 2.59175 16.7302C2.65456 16.8823 2.74679 17.0205 2.86314 17.1368C2.97949 17.2532 3.11767 17.3454 3.26975 17.4082C3.42183 17.4711 3.58482 17.5032 3.74937 17.5029C3.91391 17.5026 4.07677 17.4697 4.2286 17.4063C4.38043 17.3429 4.51824 17.2501 4.63412 17.1333L17.1333 4.63411ZM2.7641 9.99998C5.27617 6.415 7.34879 5.00029 10 5.00029C10.9132 4.99816 11.8152 5.20055 12.6399 5.59261L10.6414 7.59107C10.4329 7.53095 10.217 7.50034 10 7.50013C9.3372 7.50078 8.70173 7.76437 8.23306 8.23304C7.76439 8.70171 7.5008 9.33718 7.50015 9.99998C7.50037 10.217 7.53098 10.4329 7.59108 10.6414L5.27112 12.9614C4.33307 12.0657 3.49269 11.073 2.7641 9.99998Z" fill="black"/>
<path d="M19.7891 9.3069C19.2843 8.54934 18.7514 7.81209 18.191 7.1084L16.4106 8.88884C16.6816 9.23611 16.955 9.59984 17.2356 10.0002C14.828 13.4361 12.8186 14.8632 10.3221 14.9773L8.0354 17.264C8.67932 17.4157 9.33818 17.4947 9.99969 17.4998C14.6161 17.4998 17.4333 14.2285 19.7891 10.6935C19.9264 10.4883 19.9997 10.247 19.9997 10.0002C19.9997 9.75335 19.9264 9.51206 19.7891 9.3069Z" fill="black"/>
</svg>
