<svg width="23" height="25" viewBox="0 0 23 25" fill="none" xmlns="http://www.w3.org/2000/svg">
<path fill-rule="evenodd" clip-rule="evenodd" d="M10.3767 0.258057C6.28482 0.258057 3.11892 3.84434 3.62645 7.90458L3.72208 8.6696C3.86201 9.78905 3.4531 10.9072 2.62401 11.6723C0.905982 13.2577 0.428664 15.781 1.44893 17.8843L1.57347 18.1411C2.47262 19.9948 4.29836 21.2087 6.33647 21.3355L6.56336 21.7245C7.78383 23.8167 9.68542 24.9617 11.6822 24.9617C13.6791 24.9617 15.5806 23.8167 16.8011 21.7245L17.0316 21.3294C18.7436 21.1941 20.3045 20.2635 21.2355 18.8007C22.66 16.5624 22.2828 13.626 20.3386 11.8205L20.2858 11.7714C19.3958 10.9449 18.9576 9.7408 19.1083 8.5356L19.1861 7.91267C19.6942 3.84813 16.5249 0.258057 12.4288 0.258057H10.3767ZM6.84487 19.539C6.85574 19.5388 6.86661 19.5388 6.87746 19.539H16.487C16.4979 19.5388 16.5087 19.5388 16.5196 19.539H16.5975C17.8591 19.539 19.0332 18.8945 19.7106 17.8302C20.6667 16.3278 20.4135 14.3569 19.1086 13.145L19.0557 13.0959C17.7398 11.8738 17.0919 10.0934 17.3146 8.3114L17.3925 7.68847C17.7657 4.70279 15.4377 2.06564 12.4288 2.06564H10.3767C7.37208 2.06564 5.0474 4.699 5.42007 7.68037L5.5157 8.4454C5.72799 10.1437 5.10764 11.84 3.84985 13.0007C2.71739 14.0457 2.40276 15.709 3.07528 17.0954L3.19982 17.3522C3.84859 18.6897 5.20446 19.539 6.69098 19.539H6.84487ZM11.6822 23.1541C10.5722 23.1541 9.38791 22.597 8.47286 21.3465H14.8916C13.9766 22.597 12.7923 23.1541 11.6822 23.1541Z" fill="black"/>
</svg>
