<svg width="24" height="26" viewBox="0 0 24 26" fill="none" xmlns="http://www.w3.org/2000/svg">
<path d="M12.875 14.1668C12.875 13.6836 12.4833 13.2918 12 13.2918C11.5168 13.2918 11.125 13.6836 11.125 14.1668V18.8335C11.125 19.3167 11.5168 19.7085 12 19.7085C12.4833 19.7085 12.875 19.3167 12.875 18.8335V14.1668Z" fill="black"/>
<path fill-rule="evenodd" clip-rule="evenodd" d="M12 0.458496C8.29513 0.458496 5.29171 3.46192 5.29171 7.16683V7.77677L5.26038 7.78683C3.21811 8.4504 1.61694 10.0516 0.953368 12.0938C0.624515 13.1059 0.624706 14.3207 0.625019 16.3114V16.689C0.624706 18.6796 0.624515 19.8944 0.953368 20.9065C1.61694 22.9488 3.21811 24.5499 5.26038 25.2135C6.27249 25.5424 7.48723 25.5422 9.47787 25.5418H14.5222C16.5129 25.5422 17.7276 25.5424 18.7397 25.2135C20.782 24.5499 22.3831 22.9488 23.0467 20.9065C23.3756 19.8944 23.3754 18.6796 23.3751 16.689V16.3113C23.3754 14.3207 23.3756 13.1059 23.0467 12.0938C22.3831 10.0516 20.782 8.4504 18.7397 7.78683L18.7084 7.77677V7.16683C18.7084 3.46192 15.705 0.458496 12 0.458496ZM9.56873 7.45849C8.543 7.45846 7.72433 7.45843 7.04171 7.49707V7.16683C7.04171 4.42842 9.26163 2.2085 12 2.2085C14.7385 2.2085 16.9584 4.42842 16.9584 7.16683V7.49707C16.2757 7.45843 15.4571 7.45846 14.4313 7.45849H9.56873ZM6.31207 9.32901C7.00927 9.21155 7.94954 9.2085 9.66671 9.2085H14.3334C16.0505 9.2085 16.9908 9.21155 17.688 9.32901C17.8808 9.36149 18.047 9.40183 18.1989 9.45118C19.7084 9.94164 20.8919 11.1251 21.3824 12.6346C21.6142 13.3483 21.625 14.2606 21.625 16.5002C21.625 18.7398 21.6142 19.652 21.3824 20.3657C20.8919 21.8752 19.7084 23.0587 18.1989 23.5492C17.4853 23.781 16.573 23.7918 14.3334 23.7918H9.66671C7.42711 23.7918 6.51482 23.781 5.80116 23.5492C4.29166 23.0587 3.10819 21.8752 2.61772 20.3657C2.38583 19.652 2.37504 18.7398 2.37504 16.5002C2.37504 14.2606 2.38583 13.3483 2.61772 12.6346C3.10818 11.1251 4.29166 9.94164 5.80116 9.45118C5.95303 9.40183 6.11928 9.36149 6.31207 9.32901Z" fill="black"/>
</svg>
