<svg width="34" height="33" viewBox="0 0 34 33" fill="none" xmlns="http://www.w3.org/2000/svg">
<path d="M16.5 1V2.9375M28.125 24.25H32M16.5 10.6875V16.5M16.5 16.5H16.5194M16.5 16.5H24.2694M24.25 32H32M1 16.5H8.75M32 16.5H32.0194M20.375 24.25H16.5V32L20.375 24.25ZM2.9375 8.75H6.8125C7.32636 8.75 7.81917 8.54587 8.18252 8.18252C8.54587 7.81917 8.75 7.32636 8.75 6.8125V2.9375C8.75 2.42364 8.54587 1.93083 8.18252 1.56748C7.81917 1.20413 7.32636 1 6.8125 1H2.9375C2.42364 1 1.93083 1.20413 1.56748 1.56748C1.20413 1.93083 1 2.42364 1 2.9375V6.8125C1 7.32636 1.20413 7.81917 1.56748 8.18252C1.93083 8.54587 2.42364 8.75 2.9375 8.75ZM26.1875 8.75H30.0625C30.5764 8.75 31.0692 8.54587 31.4325 8.18252C31.7959 7.81917 32 7.32636 32 6.8125V2.9375C32 2.42364 31.7959 1.93083 31.4325 1.56748C31.0692 1.20413 30.5764 1 30.0625 1H26.1875C25.6736 1 25.1808 1.20413 24.8175 1.56748C24.4541 1.93083 24.25 2.42364 24.25 2.9375V6.8125C24.25 7.32636 24.4541 7.81917 24.8175 8.18252C25.1808 8.54587 25.6736 8.75 26.1875 8.75ZM2.9375 32H6.8125C7.32636 32 7.81917 31.7959 8.18252 31.4325C8.54587 31.0692 8.75 30.5764 8.75 30.0625V26.1875C8.75 25.6736 8.54587 25.1808 8.18252 24.8175C7.81917 24.4541 7.32636 24.25 6.8125 24.25H2.9375C2.42364 24.25 1.93083 24.4541 1.56748 24.8175C1.20413 25.1808 1 25.6736 1 26.1875V30.0625C1 30.5764 1.20413 31.0692 1.56748 31.4325C1.93083 31.7959 2.42364 32 2.9375 32Z" stroke="black" stroke-width="2" stroke-linecap="round" stroke-linejoin="round"/>
</svg>
