<svg width="25" height="25" viewBox="0 0 25 25" fill="none" xmlns="http://www.w3.org/2000/svg">
<path d="M3.92857 1.58887C3.92857 1.17465 3.54482 0.838867 3.07143 0.838867H1.35714C0.883756 0.838867 0.5 1.17465 0.5 1.58887V10.5889C0.5 11.0031 0.883756 11.3389 1.35714 11.3389H3.07143C3.54482 11.3389 3.92857 11.0031 3.92857 10.5889V1.58887Z" fill="#8E00FE"/>
<path d="M3.92857 15.0889C3.92857 14.6747 3.54482 14.3389 3.07143 14.3389H1.35714C0.883756 14.3389 0.5 14.6747 0.5 15.0889V24.0889C0.5 24.5031 0.883756 24.8389 1.35714 24.8389H3.07143C3.54482 24.8389 3.92857 24.5031 3.92857 24.0889V15.0889Z" fill="#8E00FE"/>
<path d="M13.3571 14.3389C13.8305 14.3389 14.2143 14.6747 14.2143 15.0889V24.0889C14.2143 24.5031 13.8305 24.8389 13.3571 24.8389H11.6429C11.1695 24.8389 10.7857 24.5031 10.7857 24.0889V15.0889C10.7857 14.6747 11.1695 14.3389 11.6429 14.3389H13.3571Z" fill="#8E00FE"/>
<path d="M14.2143 1.58887C14.2143 1.17465 13.8305 0.838867 13.3571 0.838867H11.6429C11.1695 0.838867 10.7857 1.17465 10.7857 1.58887V10.5889C10.7857 11.0031 11.1695 11.3389 11.6429 11.3389H13.3571C13.8305 11.3389 14.2143 11.0031 14.2143 10.5889V1.58887Z" fill="#8E00FE"/>
<path d="M23.6429 14.3389C24.1162 14.3389 24.5 14.6747 24.5 15.0889V24.0889C24.5 24.5031 24.1162 24.8389 23.6429 24.8389H21.9286C21.4552 24.8389 21.0714 24.5031 21.0714 24.0889V15.0889C21.0714 14.6747 21.4552 14.3389 21.9286 14.3389H23.6429Z" fill="#8E00FE"/>
<path d="M24.5 1.58887C24.5 1.17465 24.1162 0.838867 23.6429 0.838867H21.9286C21.4552 0.838867 21.0714 1.17465 21.0714 1.58887V10.5889C21.0714 11.0031 21.4552 11.3389 21.9286 11.3389H23.6429C24.1162 11.3389 24.5 11.0031 24.5 10.5889V1.58887Z" fill="#8E00FE"/>
</svg>
