<svg width="25" height="25" viewBox="0 0 25 25" fill="none" xmlns="http://www.w3.org/2000/svg">
<path d="M16.5911 12.6279C16.1251 12.6279 15.7474 13.0056 15.7474 13.4716C15.7474 13.9376 16.1251 14.3154 16.5911 14.3154H19.6593C20.1253 14.3154 20.5031 13.9376 20.5031 13.4716C20.5031 13.0056 20.1253 12.6279 19.6593 12.6279H16.5911Z" fill="black"/>
<path fill-rule="evenodd" clip-rule="evenodd" d="M21.1036 2.79966C21.1907 3.29911 21.2118 3.89265 21.2177 4.57172C21.3153 4.62263 21.411 4.67681 21.5051 4.73449C22.3755 5.26787 23.1074 5.99969 23.6407 6.87009C24.228 7.82843 24.4416 8.93911 24.5298 10.3508C24.594 11.3778 24.594 12.6269 24.594 14.1611V14.1929C24.594 15.0726 24.594 15.8563 24.5824 16.5538C24.5464 18.7227 24.4059 20.2562 23.6407 21.5049C23.1074 22.3753 22.3755 23.1071 21.5051 23.6405C20.674 24.1499 19.7311 24.3769 18.5796 24.4864C17.4499 24.5938 16.0359 24.5938 14.2321 24.5938H10.7684C8.96467 24.5938 7.55054 24.5938 6.42085 24.4864C5.26936 24.3769 4.32649 24.1499 3.49532 23.6405C2.62491 23.1071 1.8931 22.3753 1.35971 21.5049C0.850369 20.6737 0.623365 19.7309 0.51388 18.5794C0.406467 17.4497 0.406472 16.0356 0.406479 14.2318L0.406569 13.6403C0.391745 13.0844 0.396297 12.4629 0.401206 11.7928C0.403793 11.4396 0.406479 11.0728 0.406479 10.6951L0.406479 10.6463C0.40647 8.72004 0.406464 7.20824 0.531155 6.00839C0.658333 4.78462 0.922797 3.78645 1.51925 2.93059C1.87961 2.4135 2.31679 1.95732 2.81553 1.57956C3.64613 0.950418 4.6181 0.670738 5.80342 0.536854C6.95984 0.406234 8.41464 0.406243 10.2575 0.406255L16.4091 0.406252C17.3074 0.406213 18.0689 0.40618 18.676 0.491268C19.3244 0.58215 19.9194 0.784325 20.3955 1.28069C20.8088 1.71154 21.0046 2.23132 21.1036 2.79966ZM16.3497 2.09376C17.3236 2.09376 17.9656 2.0957 18.4417 2.16243C18.8898 2.22524 19.0641 2.33044 19.1777 2.44883C19.2827 2.55832 19.3774 2.72362 19.4412 3.08945C19.4839 3.33405 19.5071 3.63302 19.5194 4.01547C19.0551 3.93048 18.554 3.87811 18.0081 3.84442C16.9843 3.78125 15.7402 3.78125 14.2138 3.78126H10.7685C8.96464 3.78125 7.55056 3.78124 6.42085 3.88866C5.26936 3.99814 4.32649 4.22515 3.49532 4.73449C3.04725 5.00906 2.63591 5.33622 2.26946 5.7078C2.39294 4.88956 2.59516 4.33818 2.90371 3.89542C3.16424 3.52158 3.47858 3.19427 3.83443 2.92473C4.32687 2.55173 4.96008 2.33034 5.99282 2.21369C7.04352 2.09501 8.40305 2.09376 10.3099 2.09376H16.3497ZM4.37703 6.17332C4.8985 5.85376 5.55261 5.66632 6.58058 5.56858C7.62111 5.46965 8.95509 5.46875 10.8127 5.46875H14.1877C15.7454 5.46875 16.9382 5.46912 17.9042 5.52872C18.8692 5.58827 19.5438 5.70435 20.0757 5.90632C20.2749 5.98197 20.4551 6.07018 20.6234 6.17332C21.2668 6.56756 21.8077 7.10847 22.2019 7.75181C22.4794 8.20456 22.6561 8.75488 22.7621 9.55968H16.5911C14.4306 9.55968 12.6792 11.3111 12.6792 13.4716C12.6792 15.6321 14.4306 17.3835 16.5911 17.3835H22.872C22.807 19.0264 22.6277 19.9284 22.2019 20.6232C21.8077 21.2665 21.2668 21.8074 20.6234 22.2017C20.102 22.5212 19.4479 22.7087 18.4199 22.8064C17.3794 22.9054 16.0454 22.9063 14.1877 22.9063H10.8127C8.95509 22.9063 7.62111 22.9054 6.58058 22.8064C5.55261 22.7087 4.8985 22.5212 4.37703 22.2017C3.73369 21.8074 3.19278 21.2665 2.79854 20.6232C2.47899 20.1017 2.29154 19.4476 2.1938 18.4197C2.09487 17.3791 2.09398 16.0451 2.09398 14.1875C2.09398 12.3299 2.09487 10.9959 2.1938 9.95535C2.29154 8.92738 2.47899 8.27327 2.79854 7.75181C3.19279 7.10847 3.73369 6.56756 4.37703 6.17332ZM14.3667 13.4716C14.3667 12.2431 15.3626 11.2472 16.5911 11.2472H22.8812C22.9063 12.0616 22.9065 13.0225 22.9065 14.1875C22.9065 14.7319 22.9065 15.2326 22.9038 15.696H16.5911C15.3626 15.696 14.3667 14.7001 14.3667 13.4716Z" fill="black"/>
</svg>
