<svg width="35" height="35" viewBox="0 0 35 35" fill="none" xmlns="http://www.w3.org/2000/svg">
<path fill-rule="evenodd" clip-rule="evenodd" d="M17.5 35C27.165 35 35 27.165 35 17.5C35 7.83502 27.165 0 17.5 0C7.83502 0 0 7.83502 0 17.5C0 27.165 7.83502 35 17.5 35ZM18.8125 12.25C18.8125 11.5251 18.2249 10.9375 17.5 10.9375C16.7751 10.9375 16.1875 11.5251 16.1875 12.25V16.1875H12.25C11.5251 16.1875 10.9375 16.7751 10.9375 17.5C10.9375 18.2249 11.5251 18.8125 12.25 18.8125H16.1875V22.75C16.1875 23.4749 16.7751 24.0625 17.5 24.0625C18.2249 24.0625 18.8125 23.4749 18.8125 22.75V18.8125H22.75C23.4749 18.8125 24.0625 18.2249 24.0625 17.5C24.0625 16.7751 23.4749 16.1875 22.75 16.1875H18.8125V12.25Z" fill="#8E00FE"/>
</svg>
