<svg width="35" height="35" viewBox="0 0 35 35" fill="none" xmlns="http://www.w3.org/2000/svg">
<path fill-rule="evenodd" clip-rule="evenodd" d="M17.6521 34.2867C26.9592 34.2867 34.504 26.7419 34.504 17.4349C34.504 8.12784 26.9592 0.583008 17.6521 0.583008C8.34512 0.583008 0.800293 8.12784 0.800293 17.4349C0.800293 26.7419 8.34512 34.2867 17.6521 34.2867ZM18.916 12.3793C18.916 11.6813 18.3502 11.1154 17.6521 11.1154C16.9541 11.1154 16.3883 11.6813 16.3883 12.3793V16.171H12.5966C11.8986 16.171 11.3327 16.7368 11.3327 17.4349C11.3327 18.1329 11.8986 18.6987 12.5966 18.6987H16.3883V22.4904C16.3883 23.1884 16.9541 23.7543 17.6521 23.7543C18.3502 23.7543 18.916 23.1884 18.916 22.4904V18.6987H22.7077C23.4057 18.6987 23.9716 18.1329 23.9716 17.4349C23.9716 16.7368 23.4057 16.171 22.7077 16.171H18.916V12.3793Z" fill="#8E00FE"/>
</svg>
