<svg width="26" height="25" viewBox="0 0 26 25" fill="none" xmlns="http://www.w3.org/2000/svg">
<path fill-rule="evenodd" clip-rule="evenodd" d="M11.2536 0.445312C5.39652 0.445312 0.648438 5.1934 0.648438 11.0505C0.648438 16.9075 5.39652 21.6556 11.2536 21.6556C17.1106 21.6556 21.8587 16.9075 21.8587 11.0505C21.8587 5.1934 17.1106 0.445312 11.2536 0.445312ZM2.28 11.0505C2.28 6.09448 6.29761 2.07687 11.2536 2.07687C16.2095 2.07687 20.2272 6.09448 20.2272 11.0505C20.2272 16.0064 16.2095 20.024 11.2536 20.024C6.29761 20.024 2.28 16.0064 2.28 11.0505Z" fill="#002248"/>
<path d="M20.5321 19.1754C20.2136 18.8568 19.697 18.8568 19.3785 19.1754C19.0599 19.4939 19.0599 20.0105 19.3784 20.329L23.7292 24.6798C24.0477 24.9984 24.5643 24.9984 24.8828 24.6798C25.2014 24.3612 25.2014 23.8447 24.8829 23.5261L20.5321 19.1754Z" fill="#002248"/>
</svg>
